<?xml version="1.0" standalone="no"?>
<!DOCTYPE svg PUBLIC "-//W3C//DTD SVG 20010904//EN"
 "http://www.w3.org/TR/2001/REC-SVG-20010904/DTD/svg10.dtd">
<svg version="1.0" xmlns="http://www.w3.org/2000/svg"
 width="1024.000000pt" height="1024.000000pt" viewBox="0 0 1024.000000 1024.000000"
 preserveAspectRatio="xMidYMid meet">
<metadata>
Created by potrace 1.11, written by Peter Selinger 2001-2013
</metadata>
<g transform="translate(0.000000,1024.000000) scale(0.100000,-0.100000)"
fill="#000000" stroke="none">
<path d="M5968 10235 c-2 -2 -26 -7 -53 -10 -28 -4 -58 -11 -67 -16 -10 -6
-18 -8 -18 -5 0 9 -109 -32 -185 -70 -41 -20 -75 -41 -75 -46 0 -4 -6 -8 -13
-8 -44 0 -297 -262 -297 -308 0 -6 -4 -12 -8 -14 -11 -4 -72 -133 -72 -151 0
-7 -3 -17 -7 -21 -5 -4 -9 -12 -9 -17 -1 -5 -3 -11 -4 -14 -4 -7 -6 -16 -15
-60 -4 -22 -10 -49 -13 -60 -7 -28 -10 -278 -4 -290 3 -5 7 -23 9 -40 11 -105
115 -338 179 -402 8 -8 14 -18 14 -22 0 -7 94 -102 140 -142 50 -43 227 -149
250 -149 4 0 25 -8 46 -17 22 -9 42 -16 45 -15 4 1 22 -3 40 -9 102 -32 400
-30 462 2 9 6 17 8 17 5 0 -7 96 28 160 58 73 35 118 61 147 86 13 11 27 20
31 20 4 0 15 8 24 18 8 9 35 35 58 57 105 98 218 286 250 415 6 25 14 52 17
60 17 45 23 289 9 379 -19 123 -117 344 -182 408 -8 8 -14 18 -14 22 0 7 -94
102 -140 142 -108 93 -321 190 -455 206 -46 6 -263 12 -267 8z"/>
<path d="M3238 8324 c-2 -1 -26 -5 -53 -8 -28 -4 -72 -11 -100 -16 -27 -5 -59
-11 -70 -13 -11 -2 -40 -9 -65 -16 -25 -8 -49 -14 -55 -16 -11 -2 -20 -6 -120
-42 -357 -132 -679 -415 -856 -753 -13 -25 -24 -47 -24 -50 -1 -3 -12 -27 -24
-55 -31 -70 -59 -154 -88 -265 -14 -52 -29 -111 -34 -130 -12 -45 -21 -81 -24
-100 -1 -8 -5 -22 -8 -30 -5 -12 -62 -230 -72 -275 -1 -5 -5 -17 -8 -25 -3 -8
-8 -26 -10 -40 -7 -32 -12 -55 -27 -110 -7 -25 -13 -52 -15 -60 -2 -8 -8 -27
-14 -42 -6 -16 -9 -28 -6 -28 2 0 -3 -23 -11 -52 -9 -28 -17 -59 -19 -67 -2
-9 -15 -63 -30 -121 -15 -58 -29 -112 -30 -120 -2 -8 -4 -15 -5 -15 -1 0 -3
-9 -6 -20 -2 -11 -20 -81 -39 -155 -20 -74 -38 -146 -41 -160 -3 -14 -16 -67
-30 -118 -14 -51 -27 -102 -30 -115 -9 -38 -12 -52 -14 -52 -1 0 -3 -7 -5 -15
-2 -8 -8 -34 -13 -58 -10 -42 -9 -125 2 -170 9 -40 53 -108 93 -142 40 -35
121 -75 169 -83 16 -3 36 -8 44 -11 8 -3 29 -7 45 -10 17 -3 75 -17 130 -31
107 -27 139 -35 170 -40 11 -2 20 -4 20 -5 0 -1 7 -3 15 -5 8 -2 44 -10 80
-19 36 -9 74 -18 86 -20 11 -1 25 -5 30 -8 5 -4 25 -9 44 -12 19 -3 50 -10 68
-15 18 -5 35 -10 37 -10 3 0 15 -3 28 -6 12 -3 33 -7 47 -9 14 -3 108 -26 210
-52 238 -60 325 -64 414 -19 114 58 167 142 201 318 2 9 6 21 9 25 3 5 8 22
11 38 2 16 16 72 30 124 14 52 28 106 31 120 3 14 12 48 20 76 8 28 17 61 19
73 3 11 7 30 10 41 3 11 7 28 9 38 3 9 14 51 25 92 23 88 102 390 105 405 1 6
5 19 9 30 3 11 8 33 11 48 3 15 12 51 20 80 8 29 34 124 56 212 40 155 45 175
54 213 2 9 12 46 21 82 9 36 19 72 20 80 2 8 4 16 5 18 3 3 5 10 15 57 11 50
10 47 18 65 4 8 9 26 11 40 5 27 63 251 127 495 22 83 42 157 44 165 2 8 17
71 35 140 18 69 33 132 35 140 2 8 11 42 20 74 8 33 17 69 20 80 2 12 4 21 5
21 9 0 6 123 -3 153 -34 115 -142 209 -264 228 -21 3 -42 8 -47 11 -4 3 -22 7
-40 9 -17 2 -53 6 -81 10 -55 7 -342 14 -347 8z"/>
<path d="M5537 7683 c-4 -3 -37 -7 -75 -9 -82 -3 -125 -9 -212 -31 -75 -18
-191 -60 -204 -74 -6 -5 -18 -9 -28 -9 -10 0 -18 -3 -18 -8 0 -4 -13 -13 -29
-20 -29 -13 -117 -68 -137 -87 -7 -5 -31 -26 -55 -45 -82 -67 -208 -214 -252
-295 -54 -100 -119 -258 -132 -325 -3 -12 -38 -152 -87 -345 -5 -22 -11 -47
-13 -55 -2 -8 -15 -62 -30 -120 -15 -58 -29 -114 -31 -125 -2 -11 -8 -38 -14
-60 -6 -22 -13 -47 -14 -55 -2 -8 -6 -22 -9 -30 -6 -16 -37 -146 -40 -171 -2
-7 -6 -20 -10 -26 -5 -7 -6 -13 -3 -13 2 0 0 -15 -6 -32 -5 -18 -11 -42 -14
-53 -2 -11 -8 -38 -14 -60 -6 -22 -20 -76 -31 -120 -11 -44 -21 -87 -23 -95
-18 -68 -28 -107 -30 -120 -2 -8 -9 -35 -15 -60 -7 -25 -15 -52 -16 -60 -2 -8
-11 -44 -20 -80 -9 -36 -18 -75 -21 -87 -2 -12 -9 -34 -14 -48 -5 -14 -7 -25
-5 -25 2 0 0 -11 -5 -25 -10 -25 -16 -51 -27 -110 -3 -16 -9 -38 -15 -48 -5
-10 -7 -21 -4 -24 3 -4 1 -12 -6 -20 -6 -7 -8 -16 -5 -20 4 -3 2 -13 -2 -22
-26 -48 -34 -226 -14 -322 13 -68 17 -78 53 -149 13 -25 30 -58 38 -75 8 -16
416 -431 905 -922 490 -491 894 -899 899 -906 4 -8 6 -37 5 -66 -1 -28 1 -51
5 -51 4 0 5 -6 2 -14 -8 -21 -10 -126 -2 -126 4 0 3 -13 -2 -30 -5 -16 -6 -30
-2 -30 8 0 6 -86 -3 -99 -3 -5 -1 -12 4 -15 6 -4 6 -18 1 -36 -5 -17 -5 -30 0
-30 4 0 4 -16 0 -35 -4 -19 -4 -37 1 -40 4 -3 4 -16 -1 -29 -4 -12 -4 -29 0
-36 5 -8 4 -22 -1 -31 -6 -11 -5 -20 1 -24 6 -3 6 -15 0 -30 -5 -14 -5 -27 0
-30 5 -3 5 -18 0 -35 -5 -17 -5 -30 0 -30 4 0 4 -16 0 -35 -4 -19 -4 -37 1
-40 4 -3 4 -16 -1 -29 -4 -12 -4 -29 0 -36 5 -8 6 -18 3 -23 -8 -13 -9 -97 -1
-97 4 0 3 -13 -2 -30 -5 -17 -5 -30 0 -30 5 0 5 -13 0 -30 -5 -17 -5 -30 0
-30 5 0 5 -13 0 -30 -5 -17 -5 -30 0 -30 5 0 5 -13 0 -30 -5 -17 -5 -30 0 -30
5 0 5 -13 0 -30 -5 -17 -5 -30 0 -30 5 0 5 -13 0 -30 -5 -17 -5 -30 0 -30 5 0
5 -13 0 -30 -5 -17 -5 -30 0 -30 5 0 5 -13 0 -30 -5 -17 -5 -30 0 -30 5 0 5
-13 0 -30 -5 -16 -6 -30 -2 -30 4 0 7 -33 7 -73 0 -39 2 -76 4 -82 3 -5 6 -14
7 -20 1 -5 5 -23 8 -39 3 -16 24 -67 47 -114 60 -120 162 -222 280 -279 102
-50 157 -64 268 -69 93 -4 189 12 264 45 26 11 51 21 55 22 32 8 231 179 208
179 -3 0 3 9 14 20 32 32 88 156 106 235 5 21 16 130 15 153 0 6 0 32 0 57 0
25 0 52 0 60 0 8 0 35 0 60 0 25 0 52 0 60 0 8 0 35 0 60 0 25 0 53 0 63 0 9
0 40 0 67 0 28 0 57 0 65 0 12 0 210 0 245 0 6 0 35 0 65 0 30 0 62 0 70 1 40
0 180 -2 215 0 22 -1 47 0 55 0 8 0 69 0 135 0 66 0 127 0 135 2 45 -1 115 -5
121 -2 4 0 10 6 14 6 4 8 10 5 14 -2 4 -7 59 -10 122 -8 166 -25 261 -67 373
-11 28 -20 56 -21 61 -5 23 -101 205 -109 205 -4 0 -8 6 -8 13 0 7 -11 24 -25
39 -14 15 -25 32 -25 39 0 6 -235 248 -522 536 -288 289 -523 530 -522 536 1
7 20 86 43 177 24 91 44 172 46 180 2 8 8 35 15 60 7 25 14 56 17 70 2 14 11
44 18 68 8 23 14 46 13 50 -1 4 4 27 11 52 7 25 14 52 16 60 4 17 23 96 30
123 3 9 7 26 10 38 2 11 7 29 10 39 3 10 8 28 10 39 11 47 13 58 25 101 7 25
15 59 17 75 3 17 9 38 14 47 5 9 8 21 8 25 -1 4 0 15 4 23 4 12 30 114 42 170
2 8 11 44 20 80 9 36 18 72 20 80 2 8 4 16 5 18 2 1 3 6 4 11 0 5 3 12 6 15 3
3 122 -111 265 -252 270 -267 304 -294 430 -337 64 -21 79 -25 143 -29 30 -3
56 -7 59 -10 3 -3 13 -1 22 4 10 5 23 5 31 0 8 -5 21 -5 30 0 9 5 22 5 30 0 8
-5 21 -5 31 1 11 6 20 5 24 -1 4 -6 15 -6 30 0 14 5 25 6 25 2 0 -8 85 -6 106
2 6 2 17 0 24 -4 8 -5 22 -4 31 1 11 6 20 5 24 -1 4 -6 15 -6 30 0 14 5 25 6
25 2 0 -4 38 -7 85 -7 47 0 85 3 85 7 0 4 14 3 30 -2 18 -5 30 -5 30 0 0 6 10
6 25 0 15 -6 26 -6 30 1 4 5 11 7 16 3 16 -10 70 -11 75 -2 3 4 13 4 23 -1 9
-5 23 -6 31 -1 7 4 23 4 36 0 12 -5 25 -6 28 -2 4 3 5 -27 4 -66 -2 -40 0 -72
3 -72 3 0 3 -22 -1 -49 -3 -27 -3 -57 0 -67 4 -10 4 -30 0 -43 -3 -14 -3 -44
0 -68 4 -24 4 -43 1 -43 -3 0 -5 -26 -4 -57 2 -65 4 -175 3 -275 0 -37 0 -71
1 -75 1 -4 1 -12 -1 -18 -1 -5 -1 -77 0 -160 0 -82 1 -157 1 -165 -2 -57 0
-104 5 -111 3 -5 2 -9 -3 -9 -7 0 -9 -93 -2 -110 1 -3 1 -8 0 -12 -1 -9 -2
-66 -1 -168 0 -41 0 -103 0 -137 0 -34 0 -66 1 -70 1 -4 1 -12 0 -18 -1 -5 -2
-95 -1 -200 0 -104 1 -197 1 -205 -2 -83 0 -113 4 -121 4 -5 3 -9 -2 -9 -4 0
-7 -28 -6 -62 2 -35 3 -85 3 -113 0 -82 1 -319 1 -335 -1 -88 0 -113 4 -121 4
-5 3 -9 -2 -9 -4 0 -7 -26 -6 -57 2 -65 4 -175 3 -275 0 -37 0 -71 1 -75 1 -4
1 -12 -1 -18 -1 -5 -1 -77 0 -160 0 -82 1 -157 1 -165 -2 -57 0 -104 5 -111 3
-5 2 -9 -3 -9 -7 0 -9 -93 -2 -110 1 -3 1 -8 0 -12 -1 -9 -2 -66 -1 -168 0
-41 0 -103 0 -137 0 -34 0 -66 1 -70 1 -4 1 -12 0 -18 -9 -47 2 -489 12 -532
19 -76 98 -168 176 -206 44 -21 58 -22 281 -21 129 0 244 3 255 5 33 8 78 32
105 56 14 13 28 23 31 23 17 0 78 111 88 160 9 42 11 840 9 3295 -2 1782 -7
3253 -11 3268 -31 112 -162 217 -279 222 -27 1 -51 5 -54 8 -3 3 -16 2 -28 -3
-13 -4 -29 -4 -36 0 -8 5 -22 4 -31 -1 -11 -6 -20 -5 -24 1 -3 6 -15 6 -30 0
-14 -5 -27 -5 -30 0 -3 5 -18 5 -35 0 -19 -5 -30 -5 -30 1 0 6 -4 8 -9 5 -5
-3 -33 -8 -62 -10 -157 -13 -265 -113 -294 -271 -7 -42 -8 -223 0 -235 3 -5 2
-10 -2 -10 -5 0 -6 -26 -3 -58 l5 -58 -34 -3 c-19 -1 -38 -4 -43 -7 -4 -3 -8
-1 -8 4 0 5 -17 6 -40 2 -22 -4 -40 -4 -40 0 0 4 -18 4 -40 0 -22 -4 -40 -4
-40 0 0 4 -17 4 -37 1 -21 -4 -47 -6 -58 -5 -31 3 -85 5 -148 4 -33 0 -63 2
-68 6 -5 3 -9 1 -9 -4 0 -6 -8 -8 -17 -6 -10 3 -42 6 -70 7 l-53 2 -502 500
c-277 275 -521 515 -544 532 -180 138 -417 227 -635 238 -32 1 -61 5 -67 9 -5
3 -12 3 -15 -1z"/>
<path d="M3585 3537 c-3 -12 -10 -38 -15 -57 -9 -30 -125 -498 -135 -540 -3
-13 -50 -199 -87 -345 -5 -22 -11 -47 -13 -55 -2 -8 -15 -62 -30 -120 -15 -58
-29 -114 -31 -125 -2 -11 -15 -65 -30 -120 -29 -112 -28 -106 -39 -160 -11
-49 -10 -47 -18 -65 -4 -12 -38 -147 -72 -290 -2 -8 -20 -80 -40 -160 -20 -80
-38 -154 -40 -165 -3 -11 -9 -38 -15 -60 -6 -22 -13 -49 -15 -60 -2 -11 -27
-110 -55 -220 -28 -110 -54 -213 -58 -230 -8 -37 -7 -221 2 -255 3 -14 8 -36
11 -49 2 -13 23 -62 47 -109 32 -65 60 -104 119 -163 43 -44 85 -79 94 -79 8
0 15 -4 15 -9 0 -15 143 -72 215 -86 81 -16 220 -13 285 6 25 7 47 13 50 14 3
1 23 10 45 20 22 10 43 18 47 17 3 -1 12 5 18 13 7 8 16 15 21 15 30 0 179
156 217 227 25 49 58 132 66 168 28 126 40 173 46 185 5 9 11 36 15 60 4 25
11 51 17 58 6 6 8 12 6 12 -4 0 19 105 36 165 2 6 7 28 11 50 11 49 10 47 17
65 6 13 25 91 33 130 2 8 15 62 30 120 15 58 28 112 30 120 1 8 8 35 15 60 7
25 15 59 17 75 3 17 9 37 14 46 5 9 11 32 13 50 3 19 14 68 25 109 11 41 23
90 26 109 3 19 10 41 14 50 5 9 12 34 16 56 10 51 10 48 30 125 9 36 18 72 20
80 14 64 59 238 66 257 8 21 -38 70 -521 553 -458 458 -530 526 -535 507z"/>
</g>
</svg>
